# xmcd
#
# Track frame offsets:
#	150
#	23263
#	41543
#	58958
#	76353
#	95790
#	115425
#
# Disc length: 1782 seconds
# Revision: 0
# Processed by: cddbd v1.5.2PL0 Copyright (c) Steve Scherf et al.
# Submitted via: dBpowerAMP V12.0
#
DISCID=5506f407
DTITLE=Amy Grant - Smash Hits
DYEAR=1991
DGENRE=Pop/Rock
TTITLE0=I Will Remember You (Rhythm Remix)
TTITLE1=Baby Baby (7" No Getting Over You Mix)
TTITLE2=Baby Baby (7" Heart In Motion Mix)
TTITLE3=Every Heartbeat (7" Body and Soul Mix)
TTITLE4=That's What Love Is For (LP Version)
TTITLE5=That's What Love Is For (Single Mix)
TTITLE6=Good For Me (7" Good For You Mix)
EXTD=
EXTT0=
EXTT1=
EXTT2=
EXTT3=
EXTT4=
EXTT5=
EXTT6=
PLAYORDER=
